<svg height="180" viewBox="0 0 200 180" width="200" xmlns="http://www.w3.org/2000/svg"><g fill="none" fill-rule="evenodd"><circle cx="40" cy="30" fill="#59596e" r="30"/><circle cx="40" cy="30" fill="#312b3c" r="15"/><circle cx="160" cy="30" fill="#59596e" r="30"/><circle cx="160" cy="30" fill="#312b3c" r="15"/><path d="m100 180c45 0 100-24.771525 100-70 0-55.228475-44.771525-100-100-100s-100 44.771525-100 100c0 45.228475 55 70 100 70z" fill="#59596e"/><path d="m101.048859 88.0470467c15.731937 0 30.951141 28.5341793 30.951141 44.9529533s-14.6094 25.601643-30.951141 25.601643c-16.3417417 0-33.048859-9.637013-33.048859-25.601643s17.3169212-44.9529533 33.048859-44.9529533z" fill="#d0af80"/><path d="m86.7691086 140.9804c5.7675452 5.528046 22.1301624 5.647643 28.4617824 0" stroke="#312b3c" stroke-linecap="round" stroke-width="3"/><g fill="#312b3c"><path d="m100.881605 129c4.02135 0 12.773409-6.360744 12.773409-11.484394 0-5.123651-7.655799-8.515606-12.773408-8.515606-5.1176102 0-12.5366199 3.521406-12.5366199 8.515606 0 4.994199 8.51527 11.484394 12.5366189 11.484394z"/><path d="m65.0596313 65.2251575c-11.5494613-4.0433104-19.0596313-3.1387117-19.0596313-3.1387117 0 17.631878 20.9346066 28.396258 34 11.6189726 0 0-3.3909073-4.4369505-14.9403687-8.4802609z" transform="matrix(1 0 0 -1 0 144.086446)"/><path d="m139.059631 65.2251575c-11.549461-4.0433104-19.059631-3.1387117-19.059631-3.1387117 0 17.631878 20.934607 28.396258 34 11.6189726 0 0-3.390907-4.4369505-14.940369-8.4802609z" transform="matrix(-1 0 0 -1 274 144.086446)"/></g></g></svg>